<svg width="48" height="48" viewBox="0 0 48 48" fill="none" xmlns="http://www.w3.org/2000/svg">
<rect width="48" height="48" rx="10" fill="#1C1C1E"/>
<path d="M19.56 36.6908C24.2925 35.1514 26.3825 31.9412 25.211 28.3398L25.2068 28.3268C24.2468 25.3755 21.9585 24.3515 17.7783 24.8486L15.658 25.0926C13.3602 25.3656 12.174 24.9894 11.7891 23.8063L11.7849 23.7933C11.3493 22.4542 12.2582 21.1378 14.2692 20.4693C16.2064 19.8392 17.8503 20.2964 18.5232 21.7022L18.587 21.8539L22.2924 20.6487L22.199 20.4059C20.9471 17.1757 17.5755 15.8715 13.2331 17.2839C9.07263 18.6372 6.81817 21.8721 7.93463 25.3045L7.93886 25.3175C8.85656 28.1388 11.3039 29.298 15.2503 28.8338L17.3534 28.581C19.8371 28.3051 20.9675 28.6419 21.3819 29.916L21.3861 29.929C21.8513 31.3592 20.7949 32.7523 18.6237 33.4586C16.4784 34.1564 14.6353 33.7495 13.9146 32.3737L13.8421 32.2392L10.1367 33.4444L10.2173 33.6482C11.5633 37.0347 15.1005 38.1413 19.56 36.6908ZM30.2537 32.853L34.1801 31.5758L32.2559 25.6602L35.8702 24.4845C39.8227 23.1989 41.633 19.7921 40.377 15.9307L40.3686 15.9047C39.1126 12.0433 35.6444 10.3535 31.692 11.6391L24.1512 14.092L30.2537 32.853ZM31.7406 15.0594C33.9898 14.3278 35.7008 15.0796 36.3944 17.2118L36.4028 17.2378C37.0964 19.37 36.1593 20.9975 33.9101 21.7291L31.2578 22.5918L29.0883 15.9221L31.7406 15.0594Z" fill="white"/>
</svg>
