<svg width="61" height="75" viewBox="0 0 61 75" fill="none" xmlns="http://www.w3.org/2000/svg">
<circle cx="30" cy="37" r="30" fill="black"/>
<path d="M24.3388 49.6908C29.0713 48.1514 31.1613 44.9412 29.9899 41.3398L29.9856 41.3268C29.0256 38.3755 26.7373 37.3515 22.5571 37.8486L20.4368 38.0926C18.139 38.3656 16.9528 37.9894 16.568 36.8063L16.5637 36.7933C16.1281 35.4542 17.037 34.1378 19.048 33.4693C20.9852 32.8392 22.6291 33.2964 23.302 34.7022L23.3658 34.8539L27.0712 33.6487L26.9778 33.4059C25.7259 30.1757 22.3543 28.8715 18.0119 30.2839C13.8514 31.6372 11.597 34.8721 12.7134 38.3045L12.7177 38.3175C13.6354 41.1388 16.0827 42.298 20.0292 41.8338L22.1322 41.581C24.6159 41.3051 25.7463 41.6419 26.1607 42.916L26.1649 42.929C26.6301 44.3592 25.5737 45.7523 23.4025 46.4586C21.2573 47.1564 19.4141 46.7495 18.6934 45.3737L18.6209 45.2392L14.9155 46.4444L14.9961 46.6482C16.3421 50.0347 19.8793 51.1413 24.3388 49.6908ZM35.0325 45.853L38.9589 44.5758L37.0347 38.6602L40.6491 37.4845C44.6015 36.1989 46.4119 32.7921 45.1558 28.9307L45.1474 28.9047C43.8914 25.0433 40.4232 23.3535 36.4708 24.6391L28.93 27.092L35.0325 45.853ZM36.5194 28.0594C38.7687 27.3278 40.4796 28.0796 41.1732 30.2118L41.1816 30.2378C41.8752 32.37 40.9381 33.9975 38.6889 34.7291L36.0366 35.5918L33.8671 28.9221L36.5194 28.0594Z" fill="white"/>
<path d="M32.9998 17.3205C40.0103 13.9779 50.8012 16.8209 55.3203 18.6603L55.9902 7.5C50.9264 7.27073 39.239 8.91385 32.9998 17.3205Z" fill="white"/>
<path d="M31.4948 55.1764C25.5883 60.2195 14.4293 60.2663 9.58808 59.6593L11.8295 70.6126C16.7801 69.5235 27.644 64.9114 31.4948 55.1764Z" fill="white"/>
</svg>
