<svg width="354" height="214" viewBox="0 0 354 214" fill="none" xmlns="http://www.w3.org/2000/svg">
<circle cx="164" cy="107" r="107" fill="#FFD60A"/>
<path d="M7.02056 155.416L9.56982 154.514L5.25714 142.333L2.70788 143.236L7.02056 155.416ZM11.6613 153.773L14.1261 152.9L12.2851 147.701C11.8667 146.519 12.2804 145.46 13.3862 145.069C14.492 144.677 15.2882 145.155 15.7066 146.337L17.5955 151.672L20.0603 150.799L17.9922 144.958C17.242 142.839 15.6596 141.965 13.6674 142.671C12.3 143.155 11.5956 144.117 11.4989 145.319L11.4483 145.337L10.9223 143.851L8.45741 144.724L11.6613 153.773ZM27.2394 151.791C29.9575 150.829 31.167 148.852 30.4527 146.835L27.3385 138.039L24.8737 138.912L25.4206 140.457L25.37 140.475C24.5068 139.593 23.2801 139.267 22.0054 139.718C19.7179 140.528 18.9064 142.744 19.9286 145.631L19.9316 145.639C20.9268 148.45 22.9258 149.642 25.188 148.841C26.4964 148.378 27.2972 147.42 27.4351 146.307L27.4858 146.29L27.9759 147.674C28.3346 148.687 27.8924 149.584 26.6178 150.036C25.5879 150.4 24.792 150.245 24.4395 149.866L24.3932 149.816L21.9959 150.665L22.0313 150.738C22.7817 152.106 24.7493 152.673 27.2394 151.791ZM25.401 146.733C24.1686 147.17 23.0363 146.44 22.4595 144.811L22.4565 144.802C21.8827 143.182 22.3151 141.908 23.5391 141.474C24.7377 141.05 25.8953 141.77 26.4661 143.383L26.4691 143.391C27.0429 145.012 26.6081 146.306 25.401 146.733ZM32.4397 146.416L34.9046 145.544L33.1113 140.479C32.6451 139.162 33.0972 138.185 34.3127 137.755C34.6672 137.629 35.0228 137.56 35.2553 137.573L34.4872 135.404C34.2835 135.419 34.0154 135.466 33.7452 135.562C32.6901 135.935 32.1858 136.845 32.3102 138.055L32.2596 138.073L31.7007 136.495L29.2358 137.367L32.4397 146.416ZM42.8947 142.924C45.4777 142.009 46.1861 140.039 45.9924 138.607L45.9849 138.505L43.7226 139.306L43.7237 139.362C43.7257 139.932 43.3068 140.707 42.2938 141.066C41.0361 141.511 39.9521 140.945 39.4158 139.51L45.6454 137.305L45.3764 136.545C44.4081 133.81 42.1086 132.601 39.458 133.539C36.8075 134.478 35.7623 136.919 36.7814 139.797L36.7844 139.805C37.8096 142.701 40.126 143.904 42.8947 142.924ZM40.1518 135.364C41.1731 135.003 42.1377 135.393 42.7319 136.588L38.8912 137.948C38.6182 136.667 39.1388 135.723 40.1518 135.364ZM52.0093 139.697C53.3177 139.233 54.0806 138.222 54.1822 136.98L54.2329 136.962L54.7798 138.507L57.2446 137.634L52.9319 125.453L50.4671 126.326L52.1318 131.028L52.0812 131.046C51.203 130.122 49.957 129.822 48.6739 130.276C46.3948 131.083 45.6152 133.335 46.6582 136.281L46.6612 136.289C47.7013 139.227 49.7301 140.504 52.0093 139.697ZM52.1133 137.361C50.8808 137.797 49.751 137.048 49.1683 135.402L49.1653 135.393C48.5795 133.739 49.0004 132.459 50.2244 132.026C51.4146 131.605 52.6065 132.342 53.1833 133.971L53.1863 133.979C53.7661 135.617 53.3119 136.937 52.1133 137.361ZM56.834 126.285C57.5769 126.022 57.9446 125.236 57.6966 124.536C57.4485 123.835 56.6683 123.456 55.9255 123.719C55.1826 123.982 54.8149 124.768 55.0629 125.468C55.311 126.169 56.0912 126.548 56.834 126.285ZM59.2179 136.935L61.6828 136.063L58.4789 127.014L56.014 127.886L59.2179 136.935ZM67.7989 134.106C70.382 133.192 71.0903 131.221 70.8967 129.789L70.8891 129.687L68.6268 130.488L68.6279 130.545C68.63 131.114 68.211 131.889 67.198 132.248C65.9403 132.693 64.8564 132.127 64.32 130.693L70.5496 128.487L70.2807 127.727C69.3123 124.992 67.0128 123.783 64.3623 124.722C61.7117 125.66 60.6666 128.101 61.6857 130.979L61.6887 130.988C62.7138 133.883 65.0302 135.086 67.7989 134.106ZM65.056 126.547C66.0774 126.185 67.0419 126.575 67.6362 127.771L63.7954 129.131C63.5224 127.85 64.0431 126.906 65.056 126.547ZM73.4966 131.88L75.9614 131.007L74.1204 125.807C73.702 124.626 74.1157 123.567 75.2215 123.176C76.3273 122.784 77.1235 123.262 77.5419 124.444L79.4308 129.779L81.8956 128.906L79.8275 123.065C79.0773 120.946 77.4949 120.072 75.5027 120.777C74.1353 121.261 73.4309 122.223 73.3342 123.426L73.2836 123.444L72.7576 121.958L70.2927 122.831L73.4966 131.88ZM87.3956 127.168C87.9105 126.986 88.2893 126.794 88.5529 126.654L87.9134 124.847C87.7674 124.918 87.616 125 87.3965 125.078C86.6537 125.341 86.1722 125.188 85.8733 124.344L84.3192 119.955L85.9737 119.369L85.3162 117.512L83.6617 118.097L82.8787 115.886L80.3885 116.768L81.1715 118.979L79.9138 119.424L80.5713 121.282L81.829 120.836L83.4788 125.496C84.1662 127.437 85.3866 127.879 87.3956 127.168ZM93.944 124.849C96.2738 124.024 97.4906 122.283 96.8629 120.51L96.8599 120.502C96.3877 119.168 95.3481 118.7 93.3168 118.973L91.664 119.187C90.6836 119.316 90.2636 119.123 90.0993 118.659L90.0963 118.65C89.8901 118.068 90.2874 117.5 91.1399 117.198C92.0516 116.875 92.7567 117.176 93.0713 117.796L93.1036 117.861L95.3743 117.057L95.3444 116.972C94.7235 115.406 92.93 114.607 90.5243 115.459C88.2198 116.275 87.1286 117.915 87.7383 119.637L87.7413 119.645C88.2195 120.996 89.4167 121.56 91.3039 121.31L92.9538 121.087C93.9089 120.967 94.3114 121.138 94.4818 121.619L94.4848 121.628C94.691 122.21 94.2539 122.773 93.3254 123.102C92.3378 123.452 91.6595 123.226 91.2481 122.574L91.2043 122.504L88.7985 123.356L88.8339 123.429C89.6347 125.074 91.437 125.737 93.944 124.849ZM103.692 121.189L106.156 120.316L103.61 113.124L105.349 112.509L104.691 110.652L102.893 111.288L102.669 110.655C102.439 110.005 102.68 109.531 103.498 109.241C103.726 109.16 103.966 109.085 104.146 109.059L103.57 107.43C103.262 107.472 102.749 107.606 102.293 107.768C100.157 108.524 99.603 109.642 100.231 111.414L100.488 112.14L99.2552 112.576L99.9128 114.434L101.145 113.997L103.692 121.189ZM113.049 118.085C115.784 117.117 116.91 114.742 115.864 111.788L115.858 111.771C114.821 108.842 112.415 107.708 109.705 108.668C107.004 109.624 105.862 112.033 106.893 114.945L106.899 114.962C107.942 117.908 110.297 119.059 113.049 118.085ZM112.373 116.149C111.158 116.579 110.034 115.847 109.406 114.074L109.4 114.057C108.782 112.31 109.2 111.022 110.39 110.601C111.588 110.176 112.732 110.911 113.351 112.659L113.357 112.675C113.981 114.44 113.572 115.725 112.373 116.149ZM119.017 115.763L121.482 114.89L119.689 109.826C119.222 108.509 119.674 107.532 120.89 107.101C121.244 106.976 121.6 106.907 121.832 106.92L121.064 104.75C120.861 104.765 120.593 104.813 120.322 104.908C119.267 105.282 118.763 106.192 118.887 107.402L118.837 107.42L118.278 105.841L115.813 106.714L119.017 115.763ZM133.496 110.845C135.911 109.991 136.94 107.935 136.359 105.918L136.341 105.868L134.045 106.68L134.064 106.759C134.218 107.731 133.817 108.557 132.829 108.906C131.613 109.337 130.498 108.601 129.87 106.829L129.867 106.82C129.255 105.09 129.647 103.782 130.854 103.355C131.875 102.993 132.708 103.44 133.165 104.247L133.208 104.317L135.496 103.507L135.475 103.448C134.689 101.522 132.592 100.564 130.136 101.434C127.426 102.393 126.332 104.804 127.357 107.699L127.36 107.708C128.394 110.628 130.736 111.823 133.496 110.845ZM138.991 108.691L141.456 107.818L139.663 102.753C139.197 101.437 139.649 100.46 140.864 100.029C141.219 99.9037 141.575 99.8348 141.807 99.8475L141.039 97.6781C140.835 97.6932 140.567 97.7407 140.297 97.8363C139.242 98.2099 138.738 99.1199 138.862 100.33L138.811 100.348L138.252 98.7692L135.788 99.6419L138.991 108.691ZM148.089 105.631C149.28 105.21 150.042 104.304 150.228 103.193L150.278 103.175L150.757 104.525L153.221 103.653L151.025 97.4483C150.379 95.625 148.441 94.9529 146.103 95.7808C143.714 96.6266 142.703 98.3333 143.16 100.053L143.187 100.157L145.441 99.3588L145.431 99.2769C145.343 98.6526 145.748 98.0248 146.668 97.699C147.63 97.3583 148.33 97.6711 148.614 98.473L148.811 99.0301L146.622 99.9572C144.427 100.896 143.493 102.309 144.076 103.955L144.082 103.972C144.647 105.568 146.274 106.274 148.089 105.631ZM146.477 102.982L146.471 102.965C146.244 102.323 146.598 101.742 147.531 101.345L149.355 100.566L149.585 101.216C149.92 102.162 149.36 103.158 148.255 103.549C147.402 103.851 146.713 103.649 146.477 102.982ZM155.752 102.757L158.217 101.884L155.67 94.6921L157.409 94.0764L156.752 92.2194L154.954 92.856L154.73 92.2229C154.499 91.5729 154.74 91.0983 155.559 90.8084C155.787 90.7277 156.026 90.6524 156.207 90.6264L155.63 88.9973C155.322 89.0398 154.809 89.1739 154.353 89.3353C152.218 90.0915 151.663 91.2091 152.291 92.9818L152.548 93.7077L151.316 94.1441L151.973 96.0012L153.206 95.5648L155.752 102.757ZM165.194 99.6227C165.709 99.4404 166.088 99.2493 166.351 99.1085L165.712 97.302C165.566 97.3727 165.414 97.4548 165.195 97.5325C164.452 97.7955 163.971 97.643 163.672 96.7989L162.118 92.4094L163.772 91.8237L163.115 89.9666L161.46 90.5524L160.677 88.3408L158.187 89.2224L158.97 91.434L157.712 91.8793L158.37 93.7364L159.627 93.2911L161.277 97.9507C161.965 99.8922 163.185 100.334 165.194 99.6227ZM165.621 87.7683C166.364 87.5053 166.731 86.7196 166.483 86.019C166.235 85.3184 165.455 84.9392 164.712 85.2022C163.969 85.4652 163.602 86.2508 163.85 86.9515C164.098 87.6521 164.878 88.0313 165.621 87.7683ZM168.005 98.4186L170.47 97.5459L167.266 88.4968L164.801 89.3695L168.005 98.4186ZM172.401 96.8621L174.865 95.9894L173.024 90.7896C172.606 89.6079 173.02 88.5494 174.126 88.1579C175.231 87.7664 176.028 88.2445 176.446 89.4262L178.335 94.7611L180.8 93.8884L178.731 88.0471C177.981 85.9283 176.399 85.0542 174.407 85.7595C173.039 86.2437 172.335 87.2055 172.238 88.4082L172.188 88.4261L171.662 86.9404L169.197 87.8131L172.401 96.8621ZM187.979 94.8804C190.697 93.918 191.906 91.9414 191.192 89.9239L188.078 81.1281L185.613 82.0008L186.16 83.5456L186.109 83.5635C185.246 82.6817 184.019 82.3561 182.745 82.8074C180.457 83.6173 179.646 85.833 180.668 88.7199L180.671 88.7283C181.666 91.5392 183.665 92.7314 185.927 91.9304C187.236 91.4672 188.036 90.5092 188.174 89.3964L188.225 89.3785L188.715 90.7628C189.074 91.7758 188.632 92.6733 187.357 93.1246C186.327 93.4892 185.531 93.334 185.179 92.9554L185.133 92.9053L182.735 93.754L182.771 93.827C183.521 95.1952 185.489 95.762 187.979 94.8804ZM186.14 89.8221C184.908 90.2585 183.776 89.5289 183.199 87.8998L183.196 87.8913C182.622 86.2706 183.054 84.9966 184.278 84.5632C185.477 84.1388 186.635 84.8594 187.205 86.4717L187.208 86.4801C187.782 88.1008 187.347 89.3947 186.14 89.8221ZM200.3 87.1932C201.608 86.73 202.371 85.7189 202.473 84.4765L202.523 84.4586L203.07 86.0033L205.535 85.1306L201.222 72.9499L198.758 73.8226L200.422 78.5244L200.372 78.5423C199.493 77.6183 198.247 77.3185 196.964 77.7728C194.685 78.5797 193.906 80.8316 194.949 83.7776L194.952 83.7861C195.992 86.7236 198.021 88.0002 200.3 87.1932ZM200.404 84.8576C199.171 85.2939 198.041 84.5445 197.459 82.8984L197.456 82.89C196.87 81.2355 197.291 79.956 198.515 79.5227C199.705 79.1013 200.897 79.8382 201.474 81.4674L201.477 81.4758C202.057 83.1134 201.602 84.4332 200.404 84.8576ZM211.643 83.1771C214.226 82.2626 214.934 80.2924 214.741 78.86L214.733 78.7582L212.471 79.5592L212.472 79.6158C212.474 80.1851 212.055 80.9604 211.042 81.319C209.784 81.7643 208.7 81.1981 208.164 79.7636L214.393 77.558L214.125 76.7983C213.156 74.0633 210.857 72.8541 208.206 73.7926C205.556 74.731 204.51 77.1719 205.53 80.0504L205.533 80.0588C206.558 82.9542 208.874 84.1574 211.643 83.1771ZM208.9 75.6178C209.921 75.2562 210.886 75.6461 211.48 76.8416L207.639 78.2015C207.366 76.9207 207.887 75.9764 208.9 75.6178ZM217.4 80.9299L219.864 80.0572L215.552 67.8765L213.087 68.7492L217.4 80.9299ZM219.471 68.7023C220.213 68.4393 220.581 67.6536 220.333 66.953C220.085 66.2524 219.305 65.8732 218.562 66.1362C217.819 66.3992 217.451 67.1849 217.7 67.8855C217.948 68.5861 218.728 68.9653 219.471 68.7023ZM221.855 79.3526L224.319 78.4799L221.116 69.4309L218.651 70.3036L221.855 79.3526ZM230.452 76.5174C232.867 75.6626 233.896 73.6072 233.315 71.5901L233.297 71.5395L231.001 72.3524L231.02 72.4313C231.174 73.4028 230.773 74.2287 229.785 74.5784C228.569 75.0088 227.454 74.2732 226.826 72.5006L226.823 72.4921C226.211 70.7617 226.603 69.4544 227.81 69.027C228.831 68.6654 229.664 69.1116 230.121 69.9188L230.164 69.9888L232.452 69.1789L232.431 69.1198C231.645 67.1943 229.548 66.2362 227.092 67.1059C224.382 68.0653 223.288 70.476 224.313 73.3713L224.316 73.3798C225.35 76.3004 227.692 77.4947 230.452 76.5174ZM233.614 63.6947C234.357 63.4317 234.725 62.646 234.477 61.9454C234.229 61.2447 233.449 60.8655 232.706 61.1285C231.963 61.3915 231.595 62.1772 231.843 62.8778C232.091 63.5784 232.871 63.9577 233.614 63.6947ZM235.998 74.3449L238.463 73.4722L235.259 64.4232L232.794 65.2959L235.998 74.3449ZM244.613 71.5038C247.348 70.5354 248.474 68.161 247.428 65.2066L247.422 65.1897C246.385 62.2606 243.979 61.127 241.269 62.0863C238.568 63.0427 237.426 65.4514 238.457 68.3637L238.463 68.3806C239.506 71.3265 241.861 72.4781 244.613 71.5038ZM243.937 69.5677C242.721 69.9981 241.598 69.2656 240.97 67.4929L240.964 67.476C240.345 65.7287 240.763 64.4408 241.954 64.0194C243.152 63.595 244.296 64.33 244.915 66.0773L244.921 66.0942C245.545 67.8584 245.136 69.1433 243.937 69.5677ZM253.728 68.2767C255.095 67.7925 255.796 66.8222 255.893 65.6196L255.944 65.6016L256.473 67.0957L258.938 66.223L255.734 57.174L253.269 58.0467L255.11 63.2465C255.528 64.4283 255.115 65.4867 254.009 65.8782C252.903 66.2698 252.104 65.7833 251.685 64.6015L249.799 59.2751L247.335 60.1478L249.403 65.9891C250.153 68.1079 251.735 68.982 253.728 68.2767ZM264.606 64.4249C266.936 63.6001 268.153 61.8584 267.525 60.0857L267.522 60.0773C267.05 58.7435 266.01 58.2757 263.979 58.5484L262.326 58.7631C261.346 58.8918 260.926 58.6985 260.762 58.2342L260.759 58.2257C260.552 57.6433 260.95 57.0752 261.802 56.7733C262.714 56.4505 263.419 56.7518 263.734 57.3719L263.766 57.4365L266.037 56.6325L266.007 56.5481C265.386 54.9821 263.592 54.1826 261.187 55.0344C258.882 55.8503 257.791 57.4906 258.401 59.2126L258.404 59.221C258.882 60.5716 260.079 61.1357 261.966 60.8855L263.616 60.6623C264.571 60.5426 264.974 60.7136 265.144 61.1948L265.147 61.2032C265.353 61.7856 264.916 62.3489 263.988 62.6776C263 63.0273 262.322 62.802 261.91 62.1497L261.867 62.0797L259.461 62.9315L259.496 63.0044C260.297 64.6493 262.099 65.3126 264.606 64.4249ZM274.741 63.9523L277.206 63.0796L275.613 58.5805L275.664 58.5625C276.533 59.4612 277.788 59.758 279.079 59.3007C281.341 58.4998 282.115 56.231 281.075 53.2934L281.072 53.285C280.029 50.339 278.006 49.0793 275.71 49.8923C274.427 50.3465 273.675 51.3631 273.574 52.6338L273.515 52.6547L272.956 51.0762L270.492 51.9489L274.741 63.9523ZM277.512 57.5568C276.313 57.9812 275.13 57.2413 274.553 55.6121L274.55 55.6037C273.97 53.9661 274.424 52.6463 275.623 52.222C276.847 51.7886 277.979 52.5181 278.565 54.1726L278.568 54.1811C279.151 55.8271 278.736 57.1235 277.512 57.5568ZM284.237 57.2657L286.701 56.393L284.908 51.3283C284.442 50.0114 284.894 49.0344 286.11 48.6041C286.464 48.4785 286.82 48.4096 287.052 48.4223L286.284 46.2529C286.08 46.268 285.812 46.3155 285.542 46.4111C284.487 46.7847 283.983 47.6947 284.107 48.9046L284.056 48.9225L283.498 47.344L281.033 48.2167L284.237 57.2657ZM294.725 53.7611C297.46 52.7927 298.586 50.4183 297.54 47.4639L297.534 47.447C296.497 44.5179 294.091 43.3843 291.382 44.3436C288.68 45.3 287.538 47.7087 288.569 50.621L288.575 50.6379C289.618 53.5839 291.973 54.7354 294.725 53.7611ZM294.049 51.825C292.834 52.2554 291.71 51.5229 291.082 49.7502L291.076 49.7333C290.458 47.986 290.876 46.6981 292.066 46.2767C293.265 45.8523 294.408 46.5873 295.027 48.3346L295.033 48.3515C295.658 50.1157 295.248 51.4007 294.049 51.825ZM304.11 50.4384C305.418 49.9751 306.181 48.964 306.283 47.7216L306.334 47.7037L306.881 49.2485L309.345 48.3758L305.033 36.195L302.568 37.0677L304.233 41.7695L304.182 41.7874C303.304 40.8634 302.058 40.5636 300.775 41.0179C298.496 41.8249 297.716 44.0768 298.759 47.0228L298.762 47.0312C299.802 49.9688 301.831 51.2453 304.11 50.4384ZM304.214 48.1027C302.982 48.539 301.852 47.7896 301.269 46.1436L301.266 46.1351C300.68 44.4806 301.101 43.2012 302.325 42.7678C303.515 42.3464 304.707 43.0834 305.284 44.7125L305.287 44.721C305.867 46.3586 305.413 47.6783 304.214 48.1027ZM314.415 46.7899C315.782 46.3057 316.484 45.3354 316.58 44.1327L316.631 44.1148L317.16 45.6089L319.625 44.7362L316.421 35.6872L313.956 36.5599L315.797 41.7597C316.216 42.9415 315.802 43.9999 314.696 44.3914C313.59 44.7829 312.791 44.2964 312.373 43.1147L310.487 37.7882L308.022 38.6609L310.09 44.5023C310.84 46.621 312.423 47.4952 314.415 46.7899ZM325.707 42.7917C328.121 41.9369 329.151 39.8815 328.57 37.8644L328.552 37.8137L326.256 38.6266L326.274 38.7056C326.428 39.677 326.027 40.503 325.04 40.8527C323.824 41.283 322.709 40.5475 322.081 38.7748L322.078 38.7664C321.466 37.0359 321.858 35.7287 323.065 35.3013C324.086 34.9397 324.919 35.3859 325.375 36.1931L325.419 36.2631L327.707 35.4532L327.686 35.3941C326.9 33.4686 324.803 32.5105 322.347 33.3802C319.637 34.3396 318.543 36.7503 319.568 39.6456L319.571 39.654C320.605 42.5747 322.947 43.769 325.707 42.7917ZM334.864 39.5496C335.379 39.3673 335.758 39.1762 336.021 39.0354L335.382 37.229C335.236 37.2996 335.084 37.3817 334.865 37.4595C334.122 37.7225 333.641 37.5699 333.342 36.7258L331.788 32.3364L333.442 31.7506L332.785 29.8935L331.13 30.4793L330.347 28.2677L327.857 29.1494L328.64 31.361L327.382 31.8063L328.04 33.6633L329.298 33.218L330.947 37.8776C331.635 39.8191 332.855 40.261 334.864 39.5496ZM341.412 37.2311C343.742 36.4062 344.959 34.6645 344.331 32.8919L344.328 32.8834C343.856 31.5497 342.817 31.0818 340.785 31.3546L339.132 31.5693C338.152 31.6979 337.732 31.5046 337.568 31.0404L337.565 31.0319C337.359 30.4495 337.756 29.8813 338.608 29.5795C339.52 29.2567 340.225 29.558 340.54 30.1781L340.572 30.2426L342.843 29.4387L342.813 29.3543C342.192 27.7882 340.398 26.9888 337.993 27.8406C335.688 28.6565 334.597 30.2967 335.207 32.0188L335.21 32.0272C335.688 33.3778 336.885 33.9419 338.772 33.6916L340.422 33.4685C341.377 33.3488 341.78 33.5198 341.95 34.0009L341.953 34.0094C342.159 34.5918 341.722 35.155 340.794 35.4838C339.806 35.8335 339.128 35.6081 338.717 34.9558L338.673 34.8859L336.267 35.7376L336.302 35.8106C337.103 37.4554 338.905 38.1188 341.412 37.2311ZM348.132 34.8046C348.891 34.5356 349.284 33.7127 349.015 32.953C348.743 32.1848 347.923 31.8007 347.163 32.0697C346.395 32.3416 346.008 33.1532 346.28 33.9213C346.549 34.681 347.364 35.0766 348.132 34.8046Z" fill="black"/>
</svg>
